# xmcd
#
# Track frame offsets: 
#        150
#        35502
#        59112
#        86977
#        103112
#        143267
#        161577
#        180226
#        201445
#        224118
#        247018
#
# Disc length: 3595 seconds
#
# Revision: 0
# Processed by: cddbd v1.5.2PL0 Copyright (c) Steve Scherf et al.
# Submitted via: ExactAudioCopy v1.2
#
DISCID=a70e090b
DTITLE=Eric Clapton - Back to Budokan [1st Night, 13th April 2016] (Di
DTITLE=sc 1)
DYEAR=2016
DGENRE=Blues
TTITLE0=Somebody's Knocking
TTITLE1=Key To The Highway
TTITLE2=Hoochie Coochie Man
TTITLE3=Next Time You See Me
TTITLE4=I Shot The Sheriff
TTITLE5=Circus
TTITLE6=Nobody Knows You When You're Down And out
TTITLE7=I Dreamed I Saw ST. Augustine
TTITLE8=I Will Be There (with Ed Sheeran)
TTITLE9=Cypress Grove (with Ed Sheeran)
TTITLE10=Sunshine State (with Ed Sheeran)
EXTD=
EXTT0=
EXTT1=
EXTT2=
EXTT3=
EXTT4=
EXTT5=
EXTT6=
EXTT7=
EXTT8=
EXTT9=
EXTT10=
PLAYORDER=
